<mxfile host="app.diagrams.net" modified="2023-05-24T17:11:22.076Z" agent="Mozilla/5.0 (Windows NT 10.0; Win64; x64) AppleWebKit/537.36 (KHTML, like Gecko) Chrome/113.0.0.0 Safari/537.36" etag="GUM3wFvsK_Sw-SkWga3d" version="21.3.3" type="device">
  <diagram name="Страница 1" id="a1ldwItmvaGGpmWgJ8V-">
    <mxGraphModel dx="2049" dy="1137" grid="1" gridSize="10" guides="1" tooltips="1" connect="1" arrows="1" fold="1" page="1" pageScale="1" pageWidth="827" pageHeight="1169" math="0" shadow="0">
      <root>
        <mxCell id="0" />
        <mxCell id="1" parent="0" />
        <mxCell id="Mjz3eIhQbc3vQztSmIO5-6" style="edgeStyle=elbowEdgeStyle;rounded=0;orthogonalLoop=1;jettySize=auto;html=1;elbow=vertical;curved=0;" edge="1" parent="1" source="Mjz3eIhQbc3vQztSmIO5-4" target="Mjz3eIhQbc3vQztSmIO5-16">
          <mxGeometry relative="1" as="geometry">
            <mxPoint x="294.5" y="250.20000000000005" as="targetPoint" />
            <Array as="points">
              <mxPoint x="210" y="230" />
            </Array>
          </mxGeometry>
        </mxCell>
        <mxCell id="Mjz3eIhQbc3vQztSmIO5-10" value="Переходит на &lt;br&gt;ресурс авторизации" style="edgeLabel;html=1;align=center;verticalAlign=middle;resizable=0;points=[];" vertex="1" connectable="0" parent="Mjz3eIhQbc3vQztSmIO5-6">
          <mxGeometry x="-0.0202" y="1" relative="1" as="geometry">
            <mxPoint y="-29" as="offset" />
          </mxGeometry>
        </mxCell>
        <mxCell id="Mjz3eIhQbc3vQztSmIO5-30" style="edgeStyle=elbowEdgeStyle;rounded=0;orthogonalLoop=1;jettySize=auto;html=1;elbow=vertical;curved=0;" edge="1" parent="1" source="Mjz3eIhQbc3vQztSmIO5-4" target="Mjz3eIhQbc3vQztSmIO5-16">
          <mxGeometry relative="1" as="geometry">
            <Array as="points">
              <mxPoint x="190" y="340" />
            </Array>
          </mxGeometry>
        </mxCell>
        <mxCell id="Mjz3eIhQbc3vQztSmIO5-31" value="Заполняет и отправляет форму" style="edgeLabel;html=1;align=center;verticalAlign=middle;resizable=0;points=[];" vertex="1" connectable="0" parent="Mjz3eIhQbc3vQztSmIO5-30">
          <mxGeometry x="0.1602" y="-3" relative="1" as="geometry">
            <mxPoint x="-18" y="-13" as="offset" />
          </mxGeometry>
        </mxCell>
        <mxCell id="Mjz3eIhQbc3vQztSmIO5-4" value="" style="shape=umlLifeline;perimeter=lifelinePerimeter;whiteSpace=wrap;html=1;container=1;dropTarget=0;collapsible=0;recursiveResize=0;outlineConnect=0;portConstraint=eastwest;newEdgeStyle={&quot;edgeStyle&quot;:&quot;elbowEdgeStyle&quot;,&quot;elbow&quot;:&quot;vertical&quot;,&quot;curved&quot;:0,&quot;rounded&quot;:0};participant=umlActor;" vertex="1" parent="1">
          <mxGeometry x="100" y="100" width="20" height="910" as="geometry" />
        </mxCell>
        <mxCell id="Mjz3eIhQbc3vQztSmIO5-79" value="" style="html=1;points=[];perimeter=orthogonalPerimeter;outlineConnect=0;targetShapes=umlLifeline;portConstraint=eastwest;newEdgeStyle={&quot;edgeStyle&quot;:&quot;elbowEdgeStyle&quot;,&quot;elbow&quot;:&quot;vertical&quot;,&quot;curved&quot;:0,&quot;rounded&quot;:0};" vertex="1" parent="Mjz3eIhQbc3vQztSmIO5-4">
          <mxGeometry x="5" y="110" width="10" height="780" as="geometry" />
        </mxCell>
        <mxCell id="Mjz3eIhQbc3vQztSmIO5-15" value="Пользователь" style="text;html=1;align=center;verticalAlign=middle;resizable=0;points=[];autosize=1;strokeColor=none;fillColor=none;" vertex="1" parent="1">
          <mxGeometry x="70" y="48" width="100" height="30" as="geometry" />
        </mxCell>
        <mxCell id="Mjz3eIhQbc3vQztSmIO5-28" style="edgeStyle=elbowEdgeStyle;rounded=0;orthogonalLoop=1;jettySize=auto;html=1;elbow=vertical;curved=0;" edge="1" parent="1" source="Mjz3eIhQbc3vQztSmIO5-16" target="Mjz3eIhQbc3vQztSmIO5-4">
          <mxGeometry relative="1" as="geometry">
            <Array as="points">
              <mxPoint x="220" y="280" />
              <mxPoint x="240" y="300" />
              <mxPoint x="180" y="330" />
            </Array>
          </mxGeometry>
        </mxCell>
        <mxCell id="Mjz3eIhQbc3vQztSmIO5-29" value="Возвращает форму" style="edgeLabel;html=1;align=center;verticalAlign=middle;resizable=0;points=[];" vertex="1" connectable="0" parent="Mjz3eIhQbc3vQztSmIO5-28">
          <mxGeometry x="-0.0377" y="-3" relative="1" as="geometry">
            <mxPoint y="-7" as="offset" />
          </mxGeometry>
        </mxCell>
        <mxCell id="Mjz3eIhQbc3vQztSmIO5-42" style="edgeStyle=elbowEdgeStyle;rounded=0;orthogonalLoop=1;jettySize=auto;html=1;elbow=vertical;curved=0;" edge="1" parent="1" source="Mjz3eIhQbc3vQztSmIO5-16" target="Mjz3eIhQbc3vQztSmIO5-18">
          <mxGeometry relative="1" as="geometry">
            <Array as="points">
              <mxPoint x="380" y="420" />
            </Array>
          </mxGeometry>
        </mxCell>
        <mxCell id="Mjz3eIhQbc3vQztSmIO5-47" value="Отправляет&amp;nbsp; запрос&amp;nbsp;" style="edgeLabel;html=1;align=center;verticalAlign=middle;resizable=0;points=[];" vertex="1" connectable="0" parent="Mjz3eIhQbc3vQztSmIO5-42">
          <mxGeometry x="-0.1282" y="2" relative="1" as="geometry">
            <mxPoint x="15" y="-8" as="offset" />
          </mxGeometry>
        </mxCell>
        <mxCell id="Mjz3eIhQbc3vQztSmIO5-108" style="edgeStyle=elbowEdgeStyle;rounded=0;orthogonalLoop=1;jettySize=auto;html=1;elbow=vertical;curved=0;" edge="1" parent="1" source="Mjz3eIhQbc3vQztSmIO5-16" target="Mjz3eIhQbc3vQztSmIO5-79">
          <mxGeometry relative="1" as="geometry">
            <Array as="points">
              <mxPoint x="180" y="980" />
            </Array>
          </mxGeometry>
        </mxCell>
        <mxCell id="Mjz3eIhQbc3vQztSmIO5-109" value="Формирует главную страницу &lt;br&gt;удаляя данные аутентификации" style="edgeLabel;html=1;align=center;verticalAlign=middle;resizable=0;points=[];" vertex="1" connectable="0" parent="Mjz3eIhQbc3vQztSmIO5-108">
          <mxGeometry x="-0.0833" relative="1" as="geometry">
            <mxPoint x="-24" y="-20" as="offset" />
          </mxGeometry>
        </mxCell>
        <mxCell id="Mjz3eIhQbc3vQztSmIO5-16" value="" style="shape=umlLifeline;perimeter=lifelinePerimeter;whiteSpace=wrap;html=1;container=1;dropTarget=0;collapsible=0;recursiveResize=0;outlineConnect=0;portConstraint=eastwest;newEdgeStyle={&quot;edgeStyle&quot;:&quot;elbowEdgeStyle&quot;,&quot;elbow&quot;:&quot;vertical&quot;,&quot;curved&quot;:0,&quot;rounded&quot;:0};participant=umlBoundary;" vertex="1" parent="1">
          <mxGeometry x="255" y="100" width="50" height="910" as="geometry" />
        </mxCell>
        <mxCell id="Mjz3eIhQbc3vQztSmIO5-80" value="" style="html=1;points=[];perimeter=orthogonalPerimeter;outlineConnect=0;targetShapes=umlLifeline;portConstraint=eastwest;newEdgeStyle={&quot;edgeStyle&quot;:&quot;elbowEdgeStyle&quot;,&quot;elbow&quot;:&quot;vertical&quot;,&quot;curved&quot;:0,&quot;rounded&quot;:0};" vertex="1" parent="Mjz3eIhQbc3vQztSmIO5-16">
          <mxGeometry x="20" y="120" width="10" height="760" as="geometry" />
        </mxCell>
        <mxCell id="Mjz3eIhQbc3vQztSmIO5-17" value="Сервис frontend" style="text;html=1;align=center;verticalAlign=middle;resizable=0;points=[];autosize=1;strokeColor=none;fillColor=none;" vertex="1" parent="1">
          <mxGeometry x="220" y="48" width="110" height="30" as="geometry" />
        </mxCell>
        <mxCell id="Mjz3eIhQbc3vQztSmIO5-48" style="edgeStyle=elbowEdgeStyle;rounded=0;orthogonalLoop=1;jettySize=auto;html=1;elbow=vertical;curved=0;" edge="1" parent="1" source="Mjz3eIhQbc3vQztSmIO5-18" target="Mjz3eIhQbc3vQztSmIO5-20">
          <mxGeometry relative="1" as="geometry">
            <Array as="points">
              <mxPoint x="490" y="440" />
            </Array>
          </mxGeometry>
        </mxCell>
        <mxCell id="Mjz3eIhQbc3vQztSmIO5-59" style="edgeStyle=elbowEdgeStyle;rounded=0;orthogonalLoop=1;jettySize=auto;html=1;elbow=vertical;curved=0;" edge="1" parent="1" source="Mjz3eIhQbc3vQztSmIO5-18" target="Mjz3eIhQbc3vQztSmIO5-82">
          <mxGeometry relative="1" as="geometry">
            <Array as="points">
              <mxPoint x="500" y="600" />
            </Array>
          </mxGeometry>
        </mxCell>
        <mxCell id="Mjz3eIhQbc3vQztSmIO5-60" value="создать сессию" style="edgeLabel;html=1;align=center;verticalAlign=middle;resizable=0;points=[];" vertex="1" connectable="0" parent="Mjz3eIhQbc3vQztSmIO5-59">
          <mxGeometry x="0.1232" y="-1" relative="1" as="geometry">
            <mxPoint x="1" y="-18" as="offset" />
          </mxGeometry>
        </mxCell>
        <mxCell id="Mjz3eIhQbc3vQztSmIO5-104" style="edgeStyle=elbowEdgeStyle;rounded=0;orthogonalLoop=1;jettySize=auto;html=1;elbow=vertical;curved=0;" edge="1" parent="1" source="Mjz3eIhQbc3vQztSmIO5-18" target="Mjz3eIhQbc3vQztSmIO5-20">
          <mxGeometry relative="1" as="geometry">
            <Array as="points">
              <mxPoint x="490" y="910" />
            </Array>
          </mxGeometry>
        </mxCell>
        <mxCell id="Mjz3eIhQbc3vQztSmIO5-105" value="Удалить сессию" style="edgeLabel;html=1;align=center;verticalAlign=middle;resizable=0;points=[];" vertex="1" connectable="0" parent="Mjz3eIhQbc3vQztSmIO5-104">
          <mxGeometry x="0.0622" y="1" relative="1" as="geometry">
            <mxPoint x="-2" y="-9" as="offset" />
          </mxGeometry>
        </mxCell>
        <mxCell id="Mjz3eIhQbc3vQztSmIO5-107" value="Возвращает успешный статус" style="edgeStyle=elbowEdgeStyle;rounded=0;orthogonalLoop=1;jettySize=auto;html=1;elbow=vertical;curved=0;" edge="1" parent="1" source="Mjz3eIhQbc3vQztSmIO5-18" target="Mjz3eIhQbc3vQztSmIO5-80">
          <mxGeometry x="0.2388" y="-20" relative="1" as="geometry">
            <Array as="points">
              <mxPoint x="340" y="960" />
            </Array>
            <mxPoint as="offset" />
          </mxGeometry>
        </mxCell>
        <mxCell id="Mjz3eIhQbc3vQztSmIO5-18" value="" style="shape=umlLifeline;perimeter=lifelinePerimeter;whiteSpace=wrap;html=1;container=1;dropTarget=0;collapsible=0;recursiveResize=0;outlineConnect=0;portConstraint=eastwest;newEdgeStyle={&quot;edgeStyle&quot;:&quot;elbowEdgeStyle&quot;,&quot;elbow&quot;:&quot;vertical&quot;,&quot;curved&quot;:0,&quot;rounded&quot;:0};participant=umlBoundary;" vertex="1" parent="1">
          <mxGeometry x="405" y="100" width="50" height="910" as="geometry" />
        </mxCell>
        <mxCell id="Mjz3eIhQbc3vQztSmIO5-19" value="Сервис авторизации" style="text;html=1;align=center;verticalAlign=middle;resizable=0;points=[];autosize=1;strokeColor=none;fillColor=none;" vertex="1" parent="1">
          <mxGeometry x="355" y="48" width="140" height="30" as="geometry" />
        </mxCell>
        <mxCell id="Mjz3eIhQbc3vQztSmIO5-50" style="edgeStyle=elbowEdgeStyle;rounded=0;orthogonalLoop=1;jettySize=auto;html=1;elbow=vertical;curved=0;" edge="1" parent="1" source="Mjz3eIhQbc3vQztSmIO5-20" target="Mjz3eIhQbc3vQztSmIO5-18">
          <mxGeometry relative="1" as="geometry">
            <Array as="points">
              <mxPoint x="510" y="490" />
              <mxPoint x="490" y="550" />
            </Array>
          </mxGeometry>
        </mxCell>
        <mxCell id="Mjz3eIhQbc3vQztSmIO5-52" value="Возвращает ответ" style="edgeLabel;html=1;align=center;verticalAlign=middle;resizable=0;points=[];" vertex="1" connectable="0" parent="Mjz3eIhQbc3vQztSmIO5-50">
          <mxGeometry x="0.1202" y="1" relative="1" as="geometry">
            <mxPoint x="6" y="-11" as="offset" />
          </mxGeometry>
        </mxCell>
        <mxCell id="Mjz3eIhQbc3vQztSmIO5-69" style="edgeStyle=elbowEdgeStyle;rounded=0;orthogonalLoop=1;jettySize=auto;html=1;elbow=vertical;curved=0;" edge="1" parent="1" source="Mjz3eIhQbc3vQztSmIO5-82" target="Mjz3eIhQbc3vQztSmIO5-81">
          <mxGeometry relative="1" as="geometry">
            <Array as="points">
              <mxPoint x="520" y="700" />
              <mxPoint x="520" y="740" />
              <mxPoint x="470" y="710" />
            </Array>
          </mxGeometry>
        </mxCell>
        <mxCell id="Mjz3eIhQbc3vQztSmIO5-90" value="Возвращает ошибку" style="edgeLabel;html=1;align=center;verticalAlign=middle;resizable=0;points=[];" vertex="1" connectable="0" parent="Mjz3eIhQbc3vQztSmIO5-69">
          <mxGeometry x="-0.0317" relative="1" as="geometry">
            <mxPoint y="-10" as="offset" />
          </mxGeometry>
        </mxCell>
        <mxCell id="Mjz3eIhQbc3vQztSmIO5-20" value="" style="shape=umlLifeline;perimeter=lifelinePerimeter;whiteSpace=wrap;html=1;container=1;dropTarget=0;collapsible=0;recursiveResize=0;outlineConnect=0;portConstraint=eastwest;newEdgeStyle={&quot;edgeStyle&quot;:&quot;elbowEdgeStyle&quot;,&quot;elbow&quot;:&quot;vertical&quot;,&quot;curved&quot;:0,&quot;rounded&quot;:0};participant=umlBoundary;" vertex="1" parent="1">
          <mxGeometry x="540" y="100" width="50" height="910" as="geometry" />
        </mxCell>
        <mxCell id="Mjz3eIhQbc3vQztSmIO5-21" value="База данных &lt;br&gt;сервиса авторизации" style="text;html=1;align=center;verticalAlign=middle;resizable=0;points=[];autosize=1;strokeColor=none;fillColor=none;" vertex="1" parent="1">
          <mxGeometry x="505" y="53" width="140" height="40" as="geometry" />
        </mxCell>
        <mxCell id="Mjz3eIhQbc3vQztSmIO5-49" value="Проверяет наличие &lt;br&gt;такого пользователя" style="text;html=1;align=center;verticalAlign=middle;resizable=0;points=[];autosize=1;strokeColor=none;fillColor=none;" vertex="1" parent="1">
          <mxGeometry x="430" y="400" width="140" height="40" as="geometry" />
        </mxCell>
        <mxCell id="Mjz3eIhQbc3vQztSmIO5-57" value="opt" style="shape=umlFrame;whiteSpace=wrap;html=1;pointerEvents=0;" vertex="1" parent="1">
          <mxGeometry x="40" y="560" width="580" height="230" as="geometry" />
        </mxCell>
        <mxCell id="Mjz3eIhQbc3vQztSmIO5-58" value="Такой пользователь существует" style="text;html=1;align=center;verticalAlign=middle;resizable=0;points=[];autosize=1;strokeColor=none;fillColor=none;" vertex="1" parent="1">
          <mxGeometry x="120" y="560" width="200" height="30" as="geometry" />
        </mxCell>
        <mxCell id="Mjz3eIhQbc3vQztSmIO5-63" value="" style="line;strokeWidth=1;fillColor=none;align=left;verticalAlign=middle;spacingTop=-1;spacingLeft=3;spacingRight=3;rotatable=0;labelPosition=right;points=[];portConstraint=eastwest;strokeColor=inherit;" vertex="1" parent="1">
          <mxGeometry x="40" y="672" width="580" height="8" as="geometry" />
        </mxCell>
        <mxCell id="Mjz3eIhQbc3vQztSmIO5-64" value="Такого пользователя не существует" style="text;html=1;align=center;verticalAlign=middle;resizable=0;points=[];autosize=1;strokeColor=none;fillColor=none;" vertex="1" parent="1">
          <mxGeometry x="100" y="680" width="220" height="30" as="geometry" />
        </mxCell>
        <mxCell id="Mjz3eIhQbc3vQztSmIO5-85" style="edgeStyle=elbowEdgeStyle;rounded=0;orthogonalLoop=1;jettySize=auto;html=1;elbow=vertical;curved=0;" edge="1" parent="1" source="Mjz3eIhQbc3vQztSmIO5-81" target="Mjz3eIhQbc3vQztSmIO5-80">
          <mxGeometry relative="1" as="geometry">
            <Array as="points">
              <mxPoint x="340" y="650" />
            </Array>
          </mxGeometry>
        </mxCell>
        <mxCell id="Mjz3eIhQbc3vQztSmIO5-91" style="edgeStyle=elbowEdgeStyle;rounded=0;orthogonalLoop=1;jettySize=auto;html=1;elbow=vertical;curved=0;" edge="1" parent="1" source="Mjz3eIhQbc3vQztSmIO5-81" target="Mjz3eIhQbc3vQztSmIO5-80">
          <mxGeometry relative="1" as="geometry">
            <Array as="points">
              <mxPoint x="350" y="730" />
            </Array>
          </mxGeometry>
        </mxCell>
        <mxCell id="Mjz3eIhQbc3vQztSmIO5-92" value="Возвращает ошибку авторизации" style="edgeLabel;html=1;align=center;verticalAlign=middle;resizable=0;points=[];" vertex="1" connectable="0" parent="Mjz3eIhQbc3vQztSmIO5-91">
          <mxGeometry x="-0.1548" y="1" relative="1" as="geometry">
            <mxPoint x="-11" y="-21" as="offset" />
          </mxGeometry>
        </mxCell>
        <mxCell id="Mjz3eIhQbc3vQztSmIO5-81" value="" style="html=1;points=[];perimeter=orthogonalPerimeter;outlineConnect=0;targetShapes=umlLifeline;portConstraint=eastwest;newEdgeStyle={&quot;edgeStyle&quot;:&quot;elbowEdgeStyle&quot;,&quot;elbow&quot;:&quot;vertical&quot;,&quot;curved&quot;:0,&quot;rounded&quot;:0};" vertex="1" parent="1">
          <mxGeometry x="425" y="420" width="10" height="550" as="geometry" />
        </mxCell>
        <mxCell id="Mjz3eIhQbc3vQztSmIO5-83" style="edgeStyle=elbowEdgeStyle;rounded=0;orthogonalLoop=1;jettySize=auto;html=1;elbow=vertical;curved=0;" edge="1" parent="1" source="Mjz3eIhQbc3vQztSmIO5-82" target="Mjz3eIhQbc3vQztSmIO5-81">
          <mxGeometry relative="1" as="geometry">
            <Array as="points">
              <mxPoint x="490" y="630" />
            </Array>
          </mxGeometry>
        </mxCell>
        <mxCell id="Mjz3eIhQbc3vQztSmIO5-84" value="Сессия созадана" style="edgeLabel;html=1;align=center;verticalAlign=middle;resizable=0;points=[];" vertex="1" connectable="0" parent="Mjz3eIhQbc3vQztSmIO5-83">
          <mxGeometry x="-0.336" y="-1" relative="1" as="geometry">
            <mxPoint x="-14" y="-9" as="offset" />
          </mxGeometry>
        </mxCell>
        <mxCell id="Mjz3eIhQbc3vQztSmIO5-106" value="Сессия удалена" style="edgeStyle=elbowEdgeStyle;rounded=0;orthogonalLoop=1;jettySize=auto;html=1;elbow=vertical;curved=0;" edge="1" parent="1" source="Mjz3eIhQbc3vQztSmIO5-82" target="Mjz3eIhQbc3vQztSmIO5-81">
          <mxGeometry x="-0.0317" y="-10" relative="1" as="geometry">
            <Array as="points">
              <mxPoint x="490" y="940" />
            </Array>
            <mxPoint as="offset" />
          </mxGeometry>
        </mxCell>
        <mxCell id="Mjz3eIhQbc3vQztSmIO5-82" value="" style="html=1;points=[];perimeter=orthogonalPerimeter;outlineConnect=0;targetShapes=umlLifeline;portConstraint=eastwest;newEdgeStyle={&quot;edgeStyle&quot;:&quot;elbowEdgeStyle&quot;,&quot;elbow&quot;:&quot;vertical&quot;,&quot;curved&quot;:0,&quot;rounded&quot;:0};" vertex="1" parent="1">
          <mxGeometry x="561" y="430" width="10" height="520" as="geometry" />
        </mxCell>
        <mxCell id="Mjz3eIhQbc3vQztSmIO5-86" value="Возвращает данные сессии" style="text;html=1;align=center;verticalAlign=middle;resizable=0;points=[];autosize=1;strokeColor=none;fillColor=none;" vertex="1" parent="1">
          <mxGeometry x="270" y="620" width="180" height="30" as="geometry" />
        </mxCell>
        <mxCell id="Mjz3eIhQbc3vQztSmIO5-88" style="edgeStyle=elbowEdgeStyle;rounded=0;orthogonalLoop=1;jettySize=auto;html=1;elbow=vertical;curved=0;" edge="1" parent="1" source="Mjz3eIhQbc3vQztSmIO5-80" target="Mjz3eIhQbc3vQztSmIO5-79">
          <mxGeometry relative="1" as="geometry">
            <Array as="points">
              <mxPoint x="200" y="660" />
            </Array>
          </mxGeometry>
        </mxCell>
        <mxCell id="Mjz3eIhQbc3vQztSmIO5-89" value="Возвращает шаблон главной &lt;br&gt;старницы и сессию пользователя" style="edgeLabel;html=1;align=center;verticalAlign=middle;resizable=0;points=[];" vertex="1" connectable="0" parent="Mjz3eIhQbc3vQztSmIO5-88">
          <mxGeometry x="0.1146" relative="1" as="geometry">
            <mxPoint y="-20" as="offset" />
          </mxGeometry>
        </mxCell>
        <mxCell id="Mjz3eIhQbc3vQztSmIO5-93" style="edgeStyle=elbowEdgeStyle;rounded=0;orthogonalLoop=1;jettySize=auto;html=1;elbow=vertical;curved=0;" edge="1" parent="1" source="Mjz3eIhQbc3vQztSmIO5-80" target="Mjz3eIhQbc3vQztSmIO5-79">
          <mxGeometry relative="1" as="geometry">
            <Array as="points">
              <mxPoint x="190" y="760" />
            </Array>
          </mxGeometry>
        </mxCell>
        <mxCell id="Mjz3eIhQbc3vQztSmIO5-94" value="Обновляет страницу авторизации и &lt;br&gt;выводит сообщение об ошибки авторизации" style="edgeLabel;html=1;align=center;verticalAlign=middle;resizable=0;points=[];" vertex="1" connectable="0" parent="Mjz3eIhQbc3vQztSmIO5-93">
          <mxGeometry x="-0.0417" y="-2" relative="1" as="geometry">
            <mxPoint x="-38" y="-18" as="offset" />
          </mxGeometry>
        </mxCell>
        <mxCell id="Mjz3eIhQbc3vQztSmIO5-95" style="edgeStyle=elbowEdgeStyle;rounded=0;orthogonalLoop=1;jettySize=auto;html=1;elbow=vertical;curved=0;" edge="1" parent="1" source="Mjz3eIhQbc3vQztSmIO5-79" target="Mjz3eIhQbc3vQztSmIO5-80">
          <mxGeometry relative="1" as="geometry">
            <Array as="points">
              <mxPoint x="170" y="870" />
            </Array>
          </mxGeometry>
        </mxCell>
        <mxCell id="Mjz3eIhQbc3vQztSmIO5-96" value="Нажимает кнопку выхода из системы" style="edgeLabel;html=1;align=center;verticalAlign=middle;resizable=0;points=[];" vertex="1" connectable="0" parent="Mjz3eIhQbc3vQztSmIO5-95">
          <mxGeometry x="0.0625" relative="1" as="geometry">
            <mxPoint x="-20" y="-10" as="offset" />
          </mxGeometry>
        </mxCell>
        <mxCell id="Mjz3eIhQbc3vQztSmIO5-97" value="opt" style="shape=umlFrame;whiteSpace=wrap;html=1;pointerEvents=0;" vertex="1" parent="1">
          <mxGeometry x="40" y="810" width="580" height="200" as="geometry" />
        </mxCell>
        <mxCell id="Mjz3eIhQbc3vQztSmIO5-98" value="пользователь авторизован" style="text;html=1;align=center;verticalAlign=middle;resizable=0;points=[];autosize=1;strokeColor=none;fillColor=none;" vertex="1" parent="1">
          <mxGeometry x="110" y="820" width="170" height="30" as="geometry" />
        </mxCell>
        <mxCell id="Mjz3eIhQbc3vQztSmIO5-102" style="edgeStyle=elbowEdgeStyle;rounded=0;orthogonalLoop=1;jettySize=auto;html=1;elbow=vertical;curved=0;" edge="1" parent="1" source="Mjz3eIhQbc3vQztSmIO5-80" target="Mjz3eIhQbc3vQztSmIO5-81">
          <mxGeometry relative="1" as="geometry">
            <Array as="points">
              <mxPoint x="340" y="890" />
            </Array>
          </mxGeometry>
        </mxCell>
        <mxCell id="Mjz3eIhQbc3vQztSmIO5-103" value="Перенаправляет запрос" style="edgeLabel;html=1;align=center;verticalAlign=middle;resizable=0;points=[];" vertex="1" connectable="0" parent="Mjz3eIhQbc3vQztSmIO5-102">
          <mxGeometry x="-0.067" y="2" relative="1" as="geometry">
            <mxPoint x="4" y="-8" as="offset" />
          </mxGeometry>
        </mxCell>
      </root>
    </mxGraphModel>
  </diagram>
</mxfile>
